# xmcd CD database file
#
# Track frame offsets:
#	150
#	15510
#	29929
#	48884
#	64662
#	84301
#	95931
#	117493
#	141051
#	153729
#	168816
#	186654
#	201742
#
# Disc length: 2873 seconds
#
# Revision: 0
# Processed by: cddbd v1.5.1PL2 Copyright (c) Steve Scherf et al.
# Submitted via: Feurio! 1.68 - http://www.feurio.com
#
DISCID=c00b370d
DTITLE=Geno DeLaFose - French Rocking Boogie
DYEAR=1900
DGENRE=
TTITLE0=C'est Pas La Peine Brailler
TTITLE1=Do The Mills
TTITLE2=French Rocking Boogie
TTITLE3=Hey Genol
TTITLE4=Je Ne Apprecie Pas Ca
TTITLE5=Jeunes Filles De La Campagne
TTITLE6=JoAnn JoAnn
TTITLE7=One Lie (Leads To Another)
TTITLE8=Ris Et La Gres
TTITLE9=Tes Parents Ne Veulent Plis Me
TTITLE10=Think It Over
TTITLE11=Watch Your Step
TTITLE12=Wedding Day Waltz
EXTD=
EXTT0=
EXTT1=
EXTT2=
EXTT3=
EXTT4=
EXTT5=
EXTT6=
EXTT7=
EXTT8=
EXTT9=
EXTT10=
EXTT11=
EXTT12=
PLAYORDER=
